<?xml version="1.0" encoding="utf-8"?>
<!-- Generator: Adobe Illustrator 26.2.1, SVG Export Plug-In . SVG Version: 6.00 Build 0)  -->
<svg version="1.1" id="Ebene_1" xmlns="http://www.w3.org/2000/svg" xmlns:xlink="http://www.w3.org/1999/xlink" x="0px" y="0px"
	 viewBox="0 0 200 96" style="enable-background:new 0 0 200 96;" xml:space="preserve">
<style type="text/css">
	.st0{fill:#FFFFFF;}
	.st1{fill:#9E1981;}
	.st2{opacity:0.5;fill:#D51317;enable-background:new    ;}
	.st3{opacity:0.5;fill:#1F71B8;enable-background:new    ;}
	.st4{opacity:0.5;fill:#DA5914;enable-background:new    ;}
	.st5{opacity:0.5;fill:#008D36;enable-background:new    ;}
	.st6{opacity:0.5;fill:#FFDE00;enable-background:new    ;}
	.st7{opacity:0.6;fill:#9E1981;enable-background:new    ;}
	.st8{display:none;opacity:0.6;fill:#9E1981;enable-background:new    ;}
	.st9{opacity:0.7;fill:#9E1981;enable-background:new    ;}
</style>
<g id="bg_white">
	<rect x="-1" y="-1" class="st0" width="202" height="98"/>
</g>
<g id="Open_Culturas">
	<path id="Culturas_00000117640308433854586300000015009584277550526354_" class="st1" d="M109.8,26.8c-4.5,0-7.8,1.3-10,4
		s-3.2,6.3-3.2,11c0,4.7,1.1,8.4,3.2,11.1s5.4,4,9.9,4c3,0,5.5-0.6,7.4-1.8s3.4-3,4.3-5.2s1.4-4.9,1.4-8.1c0-4.7-1-8.4-3.1-11.1
		C117.6,28.2,114.3,26.8,109.8,26.8z M113.7,48.4c-0.8,1.5-2.2,2.2-4,2.2c-1.8,0-3.1-0.8-3.9-2.3c-0.8-1.5-1.2-3.7-1.2-6.4
		c0-2.8,0.4-4.9,1.2-6.5c0.8-1.5,2.2-2.3,4-2.3s3.2,0.8,3.9,2.3c0.8,1.5,1.2,3.7,1.2,6.5C115,44.8,114.5,46.9,113.7,48.4z
		 M192.1,27.3v12.3c0,0.8,0,1.7,0.1,2.6c0.1,1,0.1,1.9,0.2,2.7c0.1,0.9,0.1,1.5,0.1,1.8h-0.1l-9.6-19.5h-9.6v29.4h6.9V44.3
		c0-0.9-0.1-1.8-0.1-2.8c-0.1-1-0.1-1.9-0.2-2.8c-0.1-0.9-0.1-1.5-0.1-1.9h0.2l9.6,19.8h9.5V27.3H192.1z M136.7,27.3H127v29.4h7.6
		v-9.7h1.9c2.5,0,4.6-0.5,6.1-1.4c1.6-1,2.7-2.2,3.3-3.8c0.6-1.6,1-3.3,1-5.1c0-3-0.9-5.3-2.6-6.9C142.7,28.1,140.1,27.3,136.7,27.3
		z M138.4,39.8c-0.7,0.6-1.6,0.9-2.5,0.9h-1.2v-7.1h1.7c1.1,0,1.9,0.3,2.4,0.9c0.5,0.6,0.8,1.3,0.8,2.4
		C139.5,38.2,139.1,39.2,138.4,39.8z M151.3,56.7h16.2v-6.3h-8.7v-5.8h8v-6.2h-8v-4.8h8.7v-6.2h-16.2V56.7z"/>
	<path id="Open_00000139291654794401897460000006123246552533073810_" class="st1" d="M14.2,70.7c1.1,0,2.2,0.2,3.1,0.5
		c1,0.3,1.9,0.8,2.9,1.3l2.2-6.1c-1.3-0.7-2.8-1.2-4.2-1.6c-1.5-0.3-2.9-0.5-4.2-0.5c-2.8,0-5.1,0.6-7,1.9s-3.4,3.1-4.4,5.3
		c-1.1,2.3-1.6,5-1.6,8c0,3.1,0.4,5.8,1.3,8c0.9,2.3,2.3,4,4.1,5.2c1.9,1.2,4.3,1.8,7.1,1.8c1.4,0,2.7-0.1,4-0.4
		c1.2-0.3,2.5-0.7,3.7-1.2v-6.6c-1.1,0.5-2.2,1-3.3,1.3c-1.1,0.4-2.3,0.5-3.4,0.5c-3.8,0-5.8-2.9-5.8-8.7c0-2.7,0.5-4.9,1.4-6.5
		C11.2,71.5,12.5,70.7,14.2,70.7z M41.6,82.8c0,1.9-0.3,3.3-1,4.1c-0.6,0.9-1.6,1.2-3,1.2c-1.3,0-2.3-0.4-3-1.2s-1-2.2-1-4.1v-18
		h-7.6v18.5c0,3.7,1,6.5,3,8.4c1.9,1.9,4.8,2.9,8.5,2.9c3.9,0,6.8-1,8.7-3.1c1.9-2,3-4.8,3-8.4V64.8h-7.6V82.8z M62.1,64.8h-7.6
		v29.4H72v-6.2h-10V64.8z M70.5,71.2H77v23h7.6v-23h6.5v-6.3H70.5L70.5,71.2L70.5,71.2z M109.7,82.8c0,1.9-0.3,3.3-1,4.1
		c-0.6,0.9-1.6,1.2-3,1.2c-1.3,0-2.3-0.4-3-1.2c-0.6-0.8-1-2.2-1-4.1v-18h-7.6v18.5c0,3.7,1,6.5,3,8.4c1.9,1.9,4.8,2.9,8.5,2.9
		c3.9,0,6.8-1,8.7-3.1c1.9-2,3-4.8,3-8.4V64.8h-7.6L109.7,82.8L109.7,82.8z M141.7,78.1c0.8-1.3,1.2-2.9,1.2-4.6
		c0-5.8-3.8-8.7-11.3-8.7h-9v29.4h7.6V83.4h1.6l5.6,10.8h8.5l-7.6-12.8C139.8,80.5,140.9,79.4,141.7,78.1z M134.2,76.7
		c-0.7,0.5-1.6,0.9-2.7,0.9h-1.2v-6.8h1.3c1.3,0,2.2,0.3,2.8,0.8c0.6,0.5,0.9,1.3,0.9,2.3C135.2,75.2,134.9,76.2,134.2,76.7z
		 M155.4,64.8l-8.7,29.5h8.3l1.3-5.6h8.4l1.3,5.6h8.2l-8.8-29.5C165.4,64.8,155.4,64.8,155.4,64.8z M157.8,82.3l1.3-5.5
		c0.2-0.7,0.3-1.5,0.5-2.3c0.2-0.9,0.4-1.7,0.5-2.5c0.2-0.9,0.3-1.6,0.4-2.2c0.1,0.6,0.3,1.4,0.4,2.3c0.2,0.9,0.4,1.8,0.6,2.6
		c0.2,0.9,0.4,1.6,0.5,2.2l1.2,5.5L157.8,82.3L157.8,82.3z M188.9,76.7c-1.3-0.6-2.4-1.2-3.1-1.6c-0.8-0.4-1.2-0.8-1.6-1.2
		c-0.3-0.4-0.4-0.8-0.4-1.2c0-0.5,0.2-1,0.6-1.3c0.4-0.4,1.1-0.5,2-0.5c1,0,2,0.2,3.1,0.5c1.1,0.3,2.2,0.8,3.4,1.4l2.2-6.1
		c-1.2-0.6-2.6-1.1-4-1.5c-1.5-0.4-3-0.6-4.6-0.6c-3.2,0-5.6,0.8-7.5,2.2c-1.8,1.5-2.8,3.6-2.8,6.4c0,1.7,0.3,3,0.8,4.1
		c0.5,1.1,1.3,2,2.3,2.7c1,0.8,2.2,1.5,3.5,2.2c1.2,0.6,2.1,1.1,2.8,1.5c0.7,0.4,1.2,0.8,1.5,1.1c0.3,0.4,0.4,0.8,0.4,1.3
		c0,0.6-0.3,1.1-0.8,1.6c-0.5,0.4-1.3,0.6-2.4,0.6c-1.2,0-2.5-0.2-4-0.6c-1.5-0.4-3-1-4.4-1.8v7.1c1.3,0.7,2.7,1.2,3.9,1.5
		c1.2,0.3,2.7,0.4,4.5,0.4c2.4,0,4.4-0.4,5.9-1.3s2.7-2,3.6-3.4s1.2-3,1.2-4.6c0-2.2-0.5-3.9-1.6-5.2
		C192.5,78.8,191,77.7,188.9,76.7z"/>
</g>
<g id="crown">
	<polygon class="st0" points="74.5,13.7 70.8,1.1 56.8,13.7 48,1.1 39.1,13.7 25.1,1.1 21.4,13.7 2.2,1.1 9,56.6 86.9,56.6 
		93.7,1.1 	"/>
	<polygon class="st2" points="86.9,56.6 9,56.6 2.2,1.1 	"/>
	<polygon class="st3" points="86.9,56.6 9,56.6 93.7,1.1 	"/>
	<polygon class="st4" points="86.9,56.6 9,56.6 25.1,1.1 	"/>
	<polygon class="st5" points="86.9,56.6 9,56.6 70.8,1.1 	"/>
	<polygon class="st6" points="86.9,56.6 9,56.6 48,1.1 	"/>
	<polygon class="st2" points="86.9,56.6 9,56.6 2.2,1.1 	"/>
	<polygon class="st3" points="86.9,56.6 9,56.6 93.7,1.1 	"/>
	<polygon class="st4" points="86.9,56.6 9,56.6 25.1,1.1 	"/>
	<polygon class="st5" points="86.9,56.6 9,56.6 70.8,1.1 	"/>
	<polygon class="st6" points="86.9,56.6 9,56.6 48,1.1 	"/>
	<polygon class="st7" points="86.9,56.6 9,56.6 4.7,21.7 	"/>
	<polygon class="st7" points="86.9,56.6 9,56.6 91.2,21.7 	"/>
	<polygon class="st8" points="94.5,58.4 16.6,58.4 32.7,23.4 	"/>
	<polygon class="st8" points="94.5,58.4 16.6,58.4 78.4,23.4 	"/>
	<polygon class="st9" points="86.9,56.6 9,56.6 48,21.7 	"/>
</g>
</svg>
